G04 #@! TF.GenerationSoftware,KiCad,Pcbnew,5.1.6-c6e7f7d~87~ubuntu18.04.1*
G04 #@! TF.CreationDate,2020-08-01T12:19:59+02:00*
G04 #@! TF.ProjectId,pcbid-card,70636269-642d-4636-9172-642e6b696361,v1.0*
G04 #@! TF.SameCoordinates,Original*
G04 #@! TF.FileFunction,Soldermask,Top*
G04 #@! TF.FilePolarity,Negative*
%FSLAX46Y46*%
G04 Gerber Fmt 4.6, Leading zero omitted, Abs format (unit mm)*
G04 Created by KiCad (PCBNEW 5.1.6-c6e7f7d~87~ubuntu18.04.1) date 2020-08-01 12:19:59*
%MOMM*%
%LPD*%
G01*
G04 APERTURE LIST*
%ADD10C,0.152400*%
%ADD11C,0.100000*%
%ADD12C,0.304800*%
G04 APERTURE END LIST*
D10*
X81933511Y-5459619D02*
X81933511Y-4782285D01*
X81933511Y-4879047D02*
X81981892Y-4830666D01*
X82078654Y-4782285D01*
X82223797Y-4782285D01*
X82320559Y-4830666D01*
X82368940Y-4927428D01*
X82368940Y-5459619D01*
X82368940Y-4927428D02*
X82417320Y-4830666D01*
X82514082Y-4782285D01*
X82659225Y-4782285D01*
X82755987Y-4830666D01*
X82804368Y-4927428D01*
X82804368Y-5459619D01*
X83288178Y-5459619D02*
X83288178Y-4782285D01*
X83288178Y-4879047D02*
X83336559Y-4830666D01*
X83433320Y-4782285D01*
X83578463Y-4782285D01*
X83675225Y-4830666D01*
X83723606Y-4927428D01*
X83723606Y-5459619D01*
X83723606Y-4927428D02*
X83771987Y-4830666D01*
X83868749Y-4782285D01*
X84013892Y-4782285D01*
X84110654Y-4830666D01*
X84159035Y-4927428D01*
X84159035Y-5459619D01*
D11*
G36*
X70500000Y-50500000D02*
G01*
X61500000Y-50500000D01*
X61500000Y-44500000D01*
X70500000Y-44500000D01*
X70500000Y-50500000D01*
G37*
X70500000Y-50500000D02*
X61500000Y-50500000D01*
X61500000Y-44500000D01*
X70500000Y-44500000D01*
X70500000Y-50500000D01*
G36*
X59500000Y-50500000D02*
G01*
X50500000Y-50500000D01*
X50500000Y-44500000D01*
X59500000Y-44500000D01*
X59500000Y-50500000D01*
G37*
X59500000Y-50500000D02*
X50500000Y-50500000D01*
X50500000Y-44500000D01*
X59500000Y-44500000D01*
X59500000Y-50500000D01*
D12*
X84000000Y0D02*
X84000000Y-2000000D01*
X83000000Y-2000000D02*
X83000000Y0D01*
X82000000Y0D02*
X82000000Y-2000000D01*
X81000000Y-2000000D02*
X81000000Y0D01*
X80000000Y0D02*
X80000000Y-4000000D01*
X79000000Y-2000000D02*
X79000000Y0D01*
X78000000Y0D02*
X78000000Y-2000000D01*
X77000000Y-2000000D02*
X77000000Y0D01*
X76000000Y0D02*
X76000000Y-2000000D01*
X75000000Y-3000000D02*
X75000000Y0D01*
X74000000Y0D02*
X74000000Y-2000000D01*
X73000000Y0D02*
X73000000Y-2000000D01*
X72000000Y-2000000D02*
X72000000Y0D01*
X71000000Y-2000000D02*
X71000000Y0D01*
X70000000Y-4000000D02*
X70000000Y0D01*
X69000000Y-2000000D02*
X69000000Y0D01*
X68000000Y-2000000D02*
X68000000Y0D01*
X67000000Y0D02*
X67000000Y-2000000D01*
X66000000Y-2000000D02*
X66000000Y0D01*
X65000000Y0D02*
X65000000Y-3000000D01*
X64000000Y-2000000D02*
X64000000Y0D01*
X63000000Y0D02*
X63000000Y-2000000D01*
X62000000Y-2000000D02*
X62000000Y0D01*
X61000000Y0D02*
X61000000Y-2000000D01*
X60000000Y-4000000D02*
X60000000Y0D01*
X59000000Y0D02*
X59000000Y-2000000D01*
X58000000Y-2000000D02*
X58000000Y0D01*
X57000000Y0D02*
X57000000Y-2000000D01*
X56000000Y-2000000D02*
X56000000Y0D01*
X55000000Y0D02*
X55000000Y-3000000D01*
X54000000Y0D02*
X54000000Y-2000000D01*
X53000000Y-2000000D02*
X53000000Y0D01*
X52000000Y0D02*
X52000000Y-2000000D01*
X51000000Y-2000000D02*
X51000000Y0D01*
X50000000Y-4000000D02*
X50000000Y0D01*
X49000000Y0D02*
X49000000Y-2000000D01*
X48000000Y-2000000D02*
X48000000Y0D01*
X47000000Y0D02*
X47000000Y-2000000D01*
X46000000Y-2000000D02*
X46000000Y0D01*
X45000000Y0D02*
X45000000Y-3000000D01*
X44000000Y-2000000D02*
X44000000Y0D01*
X43000000Y0D02*
X43000000Y-2000000D01*
X42000000Y-2000000D02*
X42000000Y0D01*
X41000000Y0D02*
X41000000Y-2000000D01*
X40000000Y-4000000D02*
X40000000Y0D01*
X39000000Y-2000000D02*
X39000000Y0D01*
X38000000Y0D02*
X38000000Y-2000000D01*
X37000000Y-2000000D02*
X37000000Y0D01*
X36000000Y0D02*
X36000000Y-2000000D01*
X35000000Y-3000000D02*
X35000000Y0D01*
X34000000Y0D02*
X34000000Y-2000000D01*
X33000000Y0D02*
X33000000Y-2000000D01*
X32000000Y0D02*
X32000000Y-2000000D01*
X31000000Y-2000000D02*
X31000000Y0D01*
X30000000Y0D02*
X30000000Y-4000000D01*
X29000000Y-2000000D02*
X29000000Y0D01*
X28000000Y0D02*
X28000000Y-2000000D01*
X27000000Y-2000000D02*
X27000000Y0D01*
X26000000Y0D02*
X26000000Y-2000000D01*
X25000000Y0D02*
X25000000Y-3000000D01*
X24000000Y0D02*
X24000000Y-2000000D01*
X23000000Y-2000000D02*
X23000000Y0D01*
X22000000Y0D02*
X22000000Y-2000000D01*
X21000000Y-2000000D02*
X21000000Y0D01*
X20000000Y0D02*
X20000000Y-4000000D01*
X19000000Y-2000000D02*
X19000000Y0D01*
X18000000Y-2000000D02*
X18000000Y0D01*
X17000000Y0D02*
X17000000Y-2000000D01*
X16000000Y-2000000D02*
X16000000Y0D01*
X15000000Y0D02*
X15000000Y-3000000D01*
X14000000Y-2000000D02*
X14000000Y0D01*
X13000000Y0D02*
X13000000Y-2000000D01*
X12000000Y-2000000D02*
X12000000Y0D01*
X11000000Y0D02*
X11000000Y-2000000D01*
X10000000Y0D02*
X10000000Y-4000000D01*
X9500000Y0D02*
X9500000Y-1000000D01*
X9000000Y0D02*
X9000000Y-2000000D01*
X8500000Y0D02*
X8500000Y-1000000D01*
X8000000Y0D02*
X8000000Y-2000000D01*
X7500000Y0D02*
X7500000Y-1000000D01*
X7000000Y0D02*
X7000000Y-2000000D01*
X6500000Y0D02*
X6500000Y-1000000D01*
X6000000Y0D02*
X6000000Y-2000000D01*
X5500000Y0D02*
X5500000Y-1000000D01*
X5000000Y-3000000D02*
X5000000Y0D01*
X4500000Y0D02*
X4500000Y-1000000D01*
X4000000Y0D02*
X4000000Y-2000000D01*
X3500000Y-1000000D02*
X3500000Y0D01*
X3000000Y0D02*
X3000000Y-2000000D01*
X2500000Y0D02*
X2500000Y-1000000D01*
X2000000Y0D02*
X2000000Y-2000000D01*
X1500000Y0D02*
X1500000Y-1000000D01*
X1000000Y0D02*
X1000000Y-2000000D01*
X500000Y0D02*
X500000Y-1000000D01*
M02*
